<svg width="21" height="35" viewBox="0 0 21 35" fill="none" xmlns="http://www.w3.org/2000/svg">
<path d="M14.538 27.035C14.538 29.0351 14.537 31.0347 14.5385 33.0348C14.5389 33.7872 14.2867 34.4028 13.6215 34.8096C13.4231 34.9309 13.2108 34.9959 12.9822 34.9963C11.0168 34.9983 9.05136 35.0055 7.08594 34.992C6.45631 34.9877 6.0226 34.6242 5.75159 34.0803C5.60236 33.7809 5.54364 33.4555 5.5446 33.107C5.55471 29.0775 5.55134 25.0479 5.5499 21.0184C5.5499 20.5732 5.61344 20.6121 5.12966 20.6112C4.13708 20.6093 3.14451 20.5996 2.15193 20.6141C1.49631 20.6237 0.800731 19.9883 0.66643 19.3543C0.616849 19.1199 0.607703 18.885 0.607703 18.6467C0.61011 16.9951 0.631772 15.3431 0.599039 13.692C0.577859 12.6311 1.388 11.7925 2.46337 11.8291C3.38519 11.8604 4.30941 11.8238 5.23219 11.8421C5.50465 11.8474 5.56049 11.7617 5.55615 11.5056C5.54075 10.5906 5.52727 9.67453 5.55519 8.75993C5.60958 6.97213 6.038 5.27772 6.99255 3.75371C7.85949 2.36979 9.07254 1.37239 10.5758 0.731213C11.7095 0.247439 12.8859 1.67086e-05 14.1201 0.00964404C15.6586 0.0211968 17.198 0.0433397 18.7355 0.000498076C19.6395 -0.024533 20.4102 0.898728 20.3928 1.67951C20.3558 3.35996 20.3582 5.04281 20.3914 6.72375C20.4073 7.52715 19.6092 8.32044 18.8207 8.37917C17.7092 8.46148 16.5987 8.38928 15.4892 8.43212C15.2923 8.43982 15.0867 8.43934 14.9028 8.49855C14.6395 8.58375 14.5466 8.81721 14.5452 9.081C14.5413 9.92676 14.549 10.7725 14.536 11.6178C14.5332 11.8248 14.627 11.8363 14.7868 11.8359C16.0177 11.8325 17.2486 11.8306 18.4794 11.8368C19.3507 11.8412 20.1136 12.5762 20.1522 13.3786C20.2306 15.0095 20.1661 16.6404 20.1887 18.2708C20.1931 18.5673 20.17 18.8653 20.1599 19.1613C20.1358 19.8501 19.3006 20.6588 18.5054 20.6242C17.2769 20.5707 16.0442 20.615 14.8133 20.6044C14.5919 20.6025 14.5308 20.6603 14.5317 20.8865C14.5409 22.9362 14.537 24.9858 14.5375 27.0355L14.538 27.035ZM7.57452 26.1488H7.57645C7.57645 28.3179 7.5803 30.4874 7.57164 32.6564C7.57067 32.9048 7.64432 32.9756 7.8903 32.9736C9.30985 32.9635 10.7294 32.9606 12.149 32.9775C12.4248 32.9809 12.4671 32.8957 12.4667 32.6434C12.4585 28.4146 12.4604 24.1853 12.4614 19.9565C12.4614 19.0925 12.9759 18.5817 13.8395 18.5813C15.1897 18.5808 16.5395 18.5803 17.8897 18.5832C18.0611 18.5832 18.181 18.5918 18.1781 18.3415C18.1631 16.9884 18.1607 15.6353 18.1766 14.2822C18.18 13.9818 18.101 13.9077 17.8002 13.9057C16.4018 13.898 15.002 13.9722 13.6041 13.8672C12.9057 13.8148 12.4556 13.3007 12.4686 12.6046C12.4931 11.3059 12.3781 10.0071 12.5687 8.70794C12.7343 7.57865 13.3904 6.81954 14.4167 6.53746C14.9625 6.38775 15.5344 6.31459 16.114 6.33528C16.7681 6.35887 17.4242 6.33191 18.0794 6.34636C18.2989 6.35117 18.3658 6.29629 18.3634 6.06764C18.3518 4.81417 18.3518 3.5602 18.3634 2.30624C18.3653 2.08578 18.3114 2.01694 18.0871 2.01742C16.9256 2.02031 15.764 1.9948 14.603 2.00491C13.9618 2.01069 13.3177 2.02224 12.6847 2.16569C11.193 2.50409 9.91734 3.19052 8.97289 4.43292C8.2778 5.34752 7.88549 6.39546 7.70786 7.50934C7.56586 8.3989 7.57115 9.30965 7.57404 10.2141C7.57693 11.0897 7.56827 11.9653 7.57789 12.841C7.58078 13.1134 7.459 13.317 7.28667 13.4951C6.92805 13.8658 6.45438 13.9106 5.97783 13.913C4.95541 13.9178 3.93298 13.9168 2.91056 13.9053C2.69347 13.9029 2.62511 13.9606 2.62704 14.1888C2.63859 15.5616 2.63859 16.935 2.62704 18.3083C2.62511 18.537 2.69202 18.5865 2.91104 18.5846C4.04274 18.5736 5.17443 18.5856 6.30612 18.5788C6.97089 18.575 7.59474 19.0722 7.58463 19.8501C7.55719 21.9494 7.57501 24.0491 7.57501 26.1488H7.57452Z" fill="white"/>
</svg>
