<svg width="298" height="72" viewBox="0 0 298 72" fill="none" xmlns="http://www.w3.org/2000/svg">
<g clip-path="url(#clip0_17_71)">
<path d="M235.637 17.2408V0L48.4625 0.0175105V8.80076L57.1665 8.80777L226.936 8.79376V26.01V26.0241L235.637 26.0311L296.671 26.0241V17.2338L235.637 17.2408Z" fill="#ED343F"/>
<path d="M20.6627 71.0435C14.6798 71.0435 9.72995 69.443 5.80608 66.2421C1.9342 63.0447 0 58.499 0 52.605H10.7074C10.7074 55.7043 11.7647 57.9142 13.8757 59.2344C16.0352 60.5057 18.4997 61.1396 21.2658 61.1396C24.032 61.1396 26.1048 60.6073 27.6369 59.5391C29.169 58.471 29.9386 57.0772 29.9386 55.3506C29.9386 53.7257 29.0824 52.4299 27.3735 51.4633C26.5693 50.9555 25.5641 50.4722 24.3578 50.0169C23.7027 49.6632 23.0753 49.4076 22.4721 49.2535C22.3196 49.2044 21.6055 48.9383 20.323 48.455C19.0405 47.9717 18.1496 47.6285 17.647 47.4254L15.4598 46.5884C11.5394 45.065 8.37115 43.3875 5.9586 41.5594C2.89091 39.1745 1.3588 35.8194 1.3588 31.5014C1.3588 26.6265 3.11622 22.7286 6.63799 19.8079C10.1563 16.8871 14.9086 15.4268 20.8915 15.4268C26.8743 15.4268 32.001 16.9257 35.5193 19.9199C39.0376 22.9177 40.7985 27.4109 40.7985 33.4065H30.0911C30.0911 30.6644 29.2488 28.6332 27.5641 27.3129C25.8795 25.9926 23.6056 25.3307 20.739 25.3307C18.0734 25.3307 15.9762 25.8245 14.4407 26.8156C12.9051 27.8067 12.139 29.1655 12.139 30.892C12.139 32.6185 12.8184 33.8373 14.1738 34.7023C15.0265 35.2101 15.8064 35.6163 16.5101 35.921C16.6626 35.9735 16.8359 36.0366 17.0369 36.1101C17.238 36.1872 17.4009 36.2642 17.5257 36.3378C17.6505 36.4148 17.7649 36.4533 17.8654 36.4533L21.0336 37.595L23.1446 38.3585C24.5034 38.8172 26.0598 39.3986 27.8206 40.1095L31.9664 41.9376C33.6267 42.7011 34.9058 43.461 35.814 44.2245C39.6858 47.2223 41.4953 50.7524 41.2422 54.8148C41.2422 59.7422 39.4328 63.6786 35.814 66.6239C32.1951 69.5691 27.1412 71.0435 20.6558 71.0435H20.6627Z" fill="white"/>
<path d="M69.0733 69.9017H59.118L48.4868 20.1509V16.5718H58.8927L66.2066 52.6083L74.1237 29.3719H80.8345L88.9803 52.836L96.0689 16.5718H106.249V20.1509L95.6183 69.9017H85.663L77.3681 45.9789L69.0733 69.9017Z" fill="white"/>
<path d="M126.458 69.9018H115.751V16.5684H126.458V69.8982V69.9018Z" fill="white"/>
<path d="M150.438 69.9018H139.731V16.5684H174.72V26.017H150.438V39.3495H171.101V48.3394H150.438V69.9018Z" fill="white"/>
<path d="M204.506 69.9018H193.798V26.017H178.942V16.5684H219.286V26.017H204.506V69.9018Z" fill="white"/>
<path d="M224.194 55.8199C219.133 55.8199 216.603 53.484 216.603 48.8087V47.8386H221.002V48.8087C221.002 50.7698 222.066 51.7504 224.194 51.7504C225.165 51.7504 225.934 51.4948 226.503 50.9835C227.071 50.4722 227.356 49.6947 227.356 48.6511V33.438H231.754V48.8052C231.754 51.2251 231.051 53.0007 229.647 54.1249C228.264 55.2525 226.444 55.8164 224.194 55.8164V55.8199Z" fill="white"/>
<path d="M248.885 48.3393V33.4414H253.315V48.1537C253.315 50.5737 252.559 52.4543 251.055 53.7886C249.547 55.1439 247.512 55.8233 244.951 55.8233C242.389 55.8233 240.344 55.1439 238.815 53.7886C237.307 52.4543 236.555 50.5772 236.555 48.1537V33.4414H240.954V48.3393C240.954 49.3409 241.301 50.1604 241.99 50.7978C242.684 51.4352 243.668 51.7539 244.951 51.7539C246.233 51.7539 247.183 51.4352 247.862 50.7978C248.545 50.1604 248.885 49.3409 248.885 48.3393Z" fill="white"/>
<path d="M262.826 55.3505H258.428V33.4414H262.455L270.757 47.0891V33.4414H275.156V55.3505H271.128L262.826 41.7028V55.3505Z" fill="white"/>
<path d="M285.007 55.3505H280.609V33.4414H285.007V42.4558H287.299L292.533 33.4414H296.623V34.9123L291.139 44.1473L297.087 53.8831V55.354H292.72L287.299 46.3396H285.007V55.354V55.3505Z" fill="white"/>
<path d="M220.725 70.0736C219.553 70.0736 218.582 69.7619 217.816 69.135C217.057 68.5081 216.679 67.6186 216.679 66.4664H218.776C218.776 67.0723 218.984 67.5065 219.397 67.7657C219.82 68.0143 220.302 68.1369 220.842 68.1369C221.383 68.1369 221.789 68.0318 222.09 67.8252C222.392 67.6186 222.541 67.3419 222.541 67.0057C222.541 66.687 222.374 66.4349 222.038 66.2458C221.882 66.1477 221.685 66.0532 221.449 65.9621C221.321 65.8921 221.199 65.843 221.082 65.8115C221.054 65.801 220.912 65.7485 220.662 65.6539C220.413 65.5594 220.236 65.4928 220.139 65.4508L219.709 65.2862C218.943 64.9885 218.322 64.6593 217.847 64.3021C217.248 63.8363 216.946 63.1779 216.946 62.3339C216.946 61.3779 217.289 60.6179 217.979 60.0436C218.669 59.4727 219.598 59.1855 220.77 59.1855C221.941 59.1855 222.943 59.4797 223.633 60.0646C224.323 60.6529 224.666 61.532 224.666 62.7052H222.569C222.569 62.1693 222.402 61.7701 222.073 61.5109C221.744 61.2518 221.296 61.1222 220.738 61.1222C220.215 61.1222 219.806 61.2203 219.504 61.4129C219.203 61.6055 219.054 61.8717 219.054 62.2114C219.054 62.5511 219.185 62.7892 219.452 62.9573C219.619 63.0554 219.771 63.1359 219.91 63.1954C219.941 63.2059 219.972 63.2165 220.014 63.234C220.052 63.248 220.087 63.262 220.111 63.2795C220.135 63.2935 220.156 63.3005 220.177 63.3005L220.797 63.5246L221.21 63.6752C221.477 63.7663 221.782 63.8784 222.125 64.0184L222.936 64.3757C223.262 64.5262 223.511 64.6733 223.688 64.8239C224.447 65.4123 224.801 66.1022 224.752 66.8972C224.752 67.8602 224.399 68.6342 223.688 69.2085C222.981 69.7864 221.99 70.0736 220.721 70.0736H220.725Z" fill="#ED343F"/>
<path d="M226.614 66.2983V62.9573C226.614 61.7736 226.981 60.849 227.713 60.1836C228.444 59.5182 229.453 59.1855 230.732 59.1855C232.011 59.1855 233.016 59.5182 233.751 60.1836C234.482 60.849 234.85 61.7736 234.85 62.9573V66.2983C234.85 67.482 234.482 68.4066 233.751 69.072C233.016 69.7374 232.011 70.0701 230.732 70.0701C229.453 70.0701 228.444 69.7374 227.713 69.072C226.978 68.4066 226.614 67.482 226.614 66.2983ZM232.756 66.4034V62.8522C232.756 62.3444 232.579 61.9312 232.226 61.6055C231.872 61.2833 231.373 61.1222 230.735 61.1222C230.097 61.1222 229.598 61.2833 229.245 61.6055C228.891 61.9277 228.714 62.3444 228.714 62.8522V66.4034C228.714 66.9112 228.891 67.3244 229.245 67.6501C229.598 67.9723 230.097 68.1334 230.735 68.1334C231.373 68.1334 231.872 67.9723 232.226 67.6501C232.579 67.3279 232.756 66.9112 232.756 66.4034Z" fill="#ED343F"/>
<path d="M243.977 69.8494H237.155V59.4097H239.252V68.0003H243.977V69.8494Z" fill="#ED343F"/>
<path d="M251.124 66.5084V59.4097H253.235V66.4209C253.235 67.5731 252.875 68.4696 252.157 69.107C251.44 69.7549 250.469 70.077 249.249 70.077C248.029 70.077 247.055 69.7549 246.327 69.107C245.609 68.4696 245.249 67.5766 245.249 66.4209V59.4097H247.346V66.5084C247.346 66.9847 247.512 67.3769 247.842 67.6781C248.171 67.9828 248.642 68.1334 249.252 68.1334C249.862 68.1334 250.316 67.9828 250.639 67.6781C250.961 67.3734 251.128 66.9847 251.128 66.5084H251.124Z" fill="#ED343F"/>
<path d="M259.641 69.8494H257.544V61.2588H254.635V59.4097H262.535V61.2588H259.641V69.8494Z" fill="#ED343F"/>
<path d="M266.196 69.8494H264.099V59.4097H266.196V69.8494Z" fill="#ED343F"/>
<path d="M268.501 66.2983V62.9573C268.501 61.7736 268.868 60.849 269.6 60.1836C270.331 59.5182 271.34 59.1855 272.619 59.1855C273.898 59.1855 274.903 59.5182 275.638 60.1836C276.369 60.849 276.737 61.7736 276.737 62.9573V66.2983C276.737 67.482 276.369 68.4066 275.638 69.072C274.903 69.7374 273.898 70.0701 272.619 70.0701C271.34 70.0701 270.331 69.7374 269.6 69.072C268.865 68.4066 268.501 67.482 268.501 66.2983ZM274.643 66.4034V62.8522C274.643 62.3444 274.466 61.9312 274.113 61.6055C273.759 61.2833 273.26 61.1222 272.622 61.1222C271.984 61.1222 271.485 61.2833 271.132 61.6055C270.778 61.9277 270.601 62.3444 270.601 62.8522V66.4034C270.601 66.9112 270.778 67.3244 271.132 67.6501C271.485 67.9723 271.984 68.1334 272.622 68.1334C273.26 68.1334 273.759 67.9723 274.113 67.6501C274.466 67.3279 274.643 66.9112 274.643 66.4034Z" fill="#ED343F"/>
<path d="M281.135 69.8494H279.038V59.4097H280.959L284.914 65.9131V59.4097H287.011V69.8494H285.091L281.135 63.346V69.8494Z" fill="#ED343F"/>
<path d="M292.99 70.0736C291.819 70.0736 290.848 69.7619 290.082 69.135C289.323 68.5081 288.945 67.6186 288.945 66.4664H291.042C291.042 67.0723 291.25 67.5065 291.663 67.7657C292.086 68.0143 292.567 68.1369 293.108 68.1369C293.649 68.1369 294.054 68.0318 294.356 67.8252C294.658 67.6186 294.807 67.3419 294.807 67.0057C294.807 66.687 294.64 66.4349 294.304 66.2458C294.148 66.1477 293.95 66.0532 293.715 65.9621C293.586 65.8921 293.465 65.843 293.347 65.8115C293.32 65.801 293.177 65.7485 292.928 65.6539C292.678 65.5594 292.502 65.4928 292.404 65.4508L291.975 65.2862C291.209 64.9885 290.588 64.6593 290.113 64.3021C289.514 63.8363 289.212 63.1779 289.212 62.3339C289.212 61.3779 289.555 60.6179 290.245 60.0436C290.935 59.4727 291.864 59.1855 293.035 59.1855C294.207 59.1855 295.209 59.4797 295.898 60.0646C296.588 60.6529 296.931 61.532 296.931 62.7052H294.834C294.834 62.1693 294.668 61.7701 294.339 61.5109C294.009 61.2518 293.562 61.1222 293.004 61.1222C292.481 61.1222 292.072 61.2203 291.77 61.4129C291.469 61.6055 291.319 61.8717 291.319 62.2114C291.319 62.5511 291.451 62.7892 291.718 62.9573C291.885 63.0554 292.037 63.1359 292.176 63.1954C292.207 63.2059 292.238 63.2165 292.28 63.234C292.318 63.248 292.352 63.262 292.377 63.2795C292.401 63.2935 292.422 63.3005 292.443 63.3005L293.063 63.5246L293.476 63.6752C293.742 63.7663 294.047 63.8784 294.391 64.0184L295.202 64.3757C295.528 64.5262 295.777 64.6733 295.954 64.8239C296.713 65.4123 297.067 66.1022 297.018 66.8972C297.018 67.8602 296.665 68.6342 295.954 69.2085C295.247 69.7864 294.255 70.0736 292.987 70.0736H292.99Z" fill="#ED343F"/>
</g>
<defs>
<clipPath id="clip0_17_71">
<rect width="297.091" height="71.0435" fill="white"/>
</clipPath>
</defs>
</svg>
