<svg width="35" height="35" viewBox="0 0 35 35" fill="none" xmlns="http://www.w3.org/2000/svg">
<path d="M14.8059 34.9995C14.145 34.9995 13.6015 34.9942 13.0952 34.9836L12.6687 34.975C11.511 34.9514 10.3144 34.9268 9.15385 34.8185C7.63808 34.6775 6.33362 34.341 5.16538 33.7894C4.2046 33.336 3.32902 32.6693 2.56416 31.8082C1.74538 30.8869 1.16583 29.9059 0.791822 28.8093C0.496754 27.9429 0.349461 27.049 0.193503 26.1027L0.171842 25.9723C0.10349 25.5593 0.0924192 25.1328 0.0808667 24.6813C0.0789413 24.6153 0.0774973 24.5499 0.0755719 24.4844C-0.0163662 21.2492 -0.00385106 17.9534 0.00866407 14.7664L0.0115522 14.0299C0.0163657 12.7654 0.0351384 11.6405 0.070277 10.5907C0.105897 9.51631 0.233936 8.43086 0.450063 7.36563C0.647417 6.39475 0.976661 5.49607 1.42865 4.69462C2.09243 3.51771 2.99882 2.5348 4.12277 1.77282C4.85346 1.27751 5.73963 0.883279 6.83182 0.567513C7.74975 0.301807 8.69031 0.204093 9.6535 0.119375C10.5113 0.0433216 11.3878 0.00481351 12.2586 0.00385081H12.7649C14.4006 0.00144405 16.0367 0 17.6723 0C19.5173 0 21.1308 0.00240676 22.6057 0.00722027C23.4529 0.0101084 24.4497 0.0255116 25.4192 0.120338L25.6262 0.140555C26.4002 0.215645 27.1314 0.286404 27.8438 0.462578C29.8284 0.954519 31.3547 1.84502 32.509 3.18558C33.2185 4.00965 33.7283 4.84432 34.0671 5.73819C34.3819 6.56755 34.5918 7.30402 34.7097 7.98898C34.7978 8.50355 34.8907 9.11198 34.9085 9.7257C34.9933 12.6234 34.9807 15.576 34.9682 18.4314C34.9615 20.0425 34.9543 21.708 34.9644 23.3484C34.9706 24.3342 34.949 25.6242 34.7256 26.8618C34.2419 29.5439 33.1877 31.4289 31.4082 32.793C30.5701 33.4356 29.6868 33.9073 28.7083 34.2351C27.7879 34.5432 26.78 34.7276 25.4394 34.8325C23.7258 34.9668 22.0189 34.9942 19.9833 34.9942C19.6276 34.9942 19.2714 34.9933 18.9157 34.9928C18.559 34.9918 18.2018 34.9913 17.8451 34.9913C17.72 34.9913 17.5953 34.9913 17.4706 34.9913C17.0259 34.9913 16.5729 34.9937 16.1349 34.9957C15.6988 34.9976 15.2478 35 14.8054 35L14.8059 34.9995ZM13.9621 33.1251C14.8439 33.1251 15.7416 33.129 16.6095 33.1324C17.4788 33.1357 18.378 33.1396 19.2627 33.1396C21.3787 33.1396 22.9985 33.1174 24.5157 33.0683C25.8153 33.026 27.3229 32.9268 28.768 32.277C29.9473 31.747 30.8994 30.9802 31.5988 29.9978C32.0912 29.3061 32.7757 28.1138 33.0351 25.7566C33.1458 24.7496 33.1463 23.7398 33.1463 22.7631V22.6447C33.1463 21.553 33.154 20.442 33.1612 19.3676C33.1819 16.2114 33.2036 12.9479 33.052 9.72907C32.9961 8.54109 32.8079 7.56395 32.4599 6.6542C32.2034 5.98319 31.8582 5.20389 31.2445 4.5093C29.9896 3.08883 28.2683 2.27101 25.9819 2.00868C25.012 1.89749 24.0329 1.88738 23.0866 1.87775H23.0278C22.3602 1.87053 21.6396 1.86716 20.7597 1.86716C20.2235 1.86716 19.6873 1.86812 19.151 1.86957C18.6196 1.87053 18.0887 1.87197 17.5573 1.87197C17.0191 1.85465 16.4449 1.84598 15.8028 1.84598C15.1606 1.84598 14.4824 1.85513 13.8644 1.86475C12.6417 1.88401 11.1938 1.91289 9.72714 1.98076C8.43472 2.04045 7.29439 2.28882 6.2412 2.73937C5.19811 3.18558 4.32398 3.84888 3.64335 4.71002C2.68594 5.92158 2.14923 7.4311 2.00242 9.32521C1.90904 10.5334 1.8662 11.8119 1.86812 13.3479C1.86909 14.2692 1.86331 15.2073 1.85705 16.1147C1.84261 18.3424 1.82769 20.6456 1.91818 22.9195C1.93022 23.2223 1.93792 23.5323 1.94562 23.8322C1.9668 24.6567 1.98798 25.5097 2.09821 26.366C2.25224 27.5641 2.57138 28.5716 3.07391 29.4467C4.17091 31.3567 5.92206 32.508 8.27924 32.8691C9.77046 33.0977 11.2607 33.1285 12.5214 33.1285C12.6316 33.1285 12.7418 33.1285 12.8521 33.128C13.2218 33.1266 13.5919 33.1256 13.9616 33.1256L13.9621 33.1251Z" fill="white"/>
<path d="M16.8997 28.2393C14.3897 28.2393 12.0484 27.276 10.3076 25.5274C8.54289 23.7549 7.57752 21.3558 7.58897 18.773C7.5999 16.3515 8.56058 14.0585 10.2946 12.3162C12.0531 10.5489 14.3986 9.57568 16.8992 9.57568H16.9622C19.4929 9.59182 21.8457 10.564 23.587 12.3136C25.3195 14.0544 26.2719 16.3837 26.2687 18.8729C26.2656 21.4359 25.3122 23.8012 23.5855 25.5342C21.8619 27.2635 19.508 28.2237 16.957 28.2388H16.8997V28.2393ZM16.7675 11.573C14.8852 11.573 13.0996 12.3276 11.7393 13.6979C10.4705 14.976 9.68624 16.6913 9.58892 18.4045C9.47339 20.4274 10.1343 22.3461 11.4489 23.8075C12.7598 25.2646 14.5896 26.1525 16.4683 26.2435C16.6026 26.2498 16.7384 26.2534 16.8716 26.2534H16.8721C18.8882 26.2534 20.757 25.491 22.1346 24.1062C23.434 22.7999 24.1975 21.0732 24.2834 19.2434C24.3781 17.2325 23.6557 15.3133 22.2501 13.8394C20.8757 12.3984 18.9767 11.572 17.0402 11.572C16.9892 11.572 16.9387 11.5725 16.8877 11.5736C16.8477 11.573 16.8076 11.5725 16.7675 11.5725V11.573Z" fill="white"/>
<path d="M27.4293 9.9603C27.0036 9.9603 26.606 9.79376 26.3099 9.49088C26.02 9.19425 25.8587 8.79197 25.8675 8.3876C25.8883 7.4342 26.5378 6.80919 27.5219 6.79565H27.5422C28.4264 6.79565 29.002 7.61271 29.0379 8.3798C28.9952 9.16875 28.4868 9.95665 27.435 9.9603H27.4293Z" fill="white"/>
</svg>
