<svg width="55" height="56" viewBox="0 0 55 56" fill="none" xmlns="http://www.w3.org/2000/svg">
<path d="M27.5 0.327148C20.0372 0.327148 19.0988 0.361523 16.1666 0.492148C13.2344 0.629648 11.2372 1.09027 9.4875 1.7709C7.65134 2.45952 5.98861 3.54258 4.61656 4.94371C3.21543 6.31576 2.13237 7.97849 1.44375 9.81465C0.763125 11.5609 0.299062 13.5615 0.165 16.4834C0.034375 19.4225 0 20.3575 0 27.8306C0 35.2968 0.034375 36.2318 0.165 39.164C0.3025 42.0928 0.763125 44.09 1.44375 45.8396C2.14844 47.6478 3.08688 49.1809 4.61656 50.7106C6.14281 52.2403 7.67594 53.1821 9.48406 53.8834C11.2372 54.564 13.2309 55.0281 16.1597 55.1621C19.0953 55.2928 20.0303 55.3271 27.5 55.3271C34.9697 55.3271 35.9013 55.2928 38.8369 55.1621C41.7622 55.0246 43.7663 54.564 45.5159 53.8834C47.3509 53.1943 49.0124 52.1113 50.3834 50.7106C51.9131 49.1809 52.8516 47.6478 53.5563 45.8396C54.2334 44.09 54.6975 42.0928 54.835 39.164C54.9656 36.2318 55 35.2968 55 27.8271C55 20.3575 54.9656 19.4225 54.835 16.4868C54.6975 13.5615 54.2334 11.5609 53.5563 9.81465C52.8676 7.97849 51.7846 6.31576 50.3834 4.94371C49.0114 3.54258 47.3487 2.45952 45.5125 1.7709C43.7594 1.09027 41.7588 0.626211 38.8334 0.492148C35.8978 0.361523 34.9663 0.327148 27.4931 0.327148H27.5ZM25.0353 5.28402H27.5034C34.8459 5.28402 35.7156 5.30809 38.6134 5.44215C41.2947 5.56246 42.7522 6.01277 43.7216 6.38746C45.0037 6.8859 45.9216 7.48402 46.8841 8.44652C47.8466 9.40902 48.4412 10.3234 48.9397 11.609C49.3178 12.575 49.7647 14.0325 49.885 16.7137C50.0191 19.6115 50.0466 20.4812 50.0466 27.8203C50.0466 35.1593 50.0191 36.0325 49.885 38.9303C49.7647 41.6115 49.3144 43.0656 48.9397 44.035C48.4957 45.2274 47.7924 46.3064 46.8806 47.194C45.9181 48.1565 45.0037 48.7512 43.7181 49.2496C42.7556 49.6278 41.2981 50.0746 38.6134 50.1984C35.7156 50.329 34.8459 50.36 27.5034 50.36C20.1609 50.36 19.2878 50.329 16.39 50.1984C13.7088 50.0746 12.2547 49.6278 11.2853 49.2496C10.0919 48.8071 9.01174 48.105 8.12281 47.194C7.20938 46.3058 6.50488 45.2255 6.06031 44.0315C5.68563 43.0656 5.23531 41.6081 5.115 38.9268C4.98438 36.029 4.95688 35.1593 4.95688 27.8134C4.95688 20.4675 4.98438 19.6046 5.115 16.7068C5.23875 14.0256 5.68563 12.5681 6.06375 11.5987C6.56219 10.3165 7.16031 9.39871 8.12281 8.43621C9.08531 7.47371 9.99969 6.87902 11.2853 6.38059C12.2547 6.00246 13.7088 5.55559 16.39 5.43184C18.9269 5.31496 19.91 5.28059 25.0353 5.27715V5.28402ZM42.1816 9.84902C41.7482 9.84902 41.3191 9.93438 40.9187 10.1002C40.5183 10.2661 40.1545 10.5091 39.8481 10.8156C39.5417 11.122 39.2986 11.4858 39.1328 11.8862C38.9669 12.2865 38.8816 12.7157 38.8816 13.149C38.8816 13.5824 38.9669 14.0115 39.1328 14.4119C39.2986 14.8123 39.5417 15.176 39.8481 15.4825C40.1545 15.7889 40.5183 16.032 40.9187 16.1978C41.3191 16.3637 41.7482 16.449 42.1816 16.449C43.0568 16.449 43.8961 16.1013 44.515 15.4825C45.1339 14.8636 45.4816 14.0242 45.4816 13.149C45.4816 12.2738 45.1339 11.4344 44.515 10.8156C43.8961 10.1967 43.0568 9.84902 42.1816 9.84902ZM27.5034 13.7059C25.6302 13.6767 23.7699 14.0204 22.0309 14.717C20.2918 15.4136 18.7086 16.4493 17.3736 17.7636C16.0386 19.0779 14.9784 20.6447 14.2548 22.3727C13.5311 24.1007 13.1584 25.9554 13.1584 27.8289C13.1584 29.7023 13.5311 31.557 14.2548 33.285C14.9784 35.013 16.0386 36.5798 17.3736 37.8941C18.7086 39.2085 20.2918 40.2441 22.0309 40.9407C23.7699 41.6374 25.6302 41.9811 27.5034 41.9518C31.2109 41.894 34.747 40.3806 37.3484 37.7383C39.9497 35.096 41.4078 31.5368 41.4078 27.8289C41.4078 24.1209 39.9497 20.5617 37.3484 17.9194C34.747 15.2771 31.2109 13.7637 27.5034 13.7059ZM27.5034 18.6593C28.7074 18.6593 29.8995 18.8965 31.0118 19.3572C32.1241 19.8179 33.1348 20.4932 33.9861 21.3445C34.8374 22.1958 35.5127 23.2065 35.9734 24.3188C36.4341 25.4311 36.6712 26.6232 36.6712 27.8271C36.6712 29.0311 36.4341 30.2232 35.9734 31.3355C35.5127 32.4478 34.8374 33.4585 33.9861 34.3098C33.1348 35.1611 32.1241 35.8364 31.0118 36.2971C29.8995 36.7578 28.7074 36.995 27.5034 36.995C25.072 36.995 22.7401 36.0291 21.0208 34.3098C19.3015 32.5905 18.3356 30.2586 18.3356 27.8271C18.3356 25.3957 19.3015 23.0638 21.0208 21.3445C22.7401 19.6252 25.072 18.6593 27.5034 18.6593Z" fill="white"/>
</svg>
