<svg width="180" height="44" viewBox="0 0 180 44" fill="none" xmlns="http://www.w3.org/2000/svg">
<g clip-path="url(#clip0_17_48)">
<path d="M142.766 10.4458V0L29.3622 0.0106092V5.33216L34.6357 5.33641L137.495 5.32792V15.7588V15.7673L142.766 15.7716L179.746 15.7673V10.4415L142.766 10.4458Z" fill="#ED343F"/>
<path d="M12.519 43.0435C8.89415 43.0435 5.89513 42.0738 3.51776 40.1345C1.17189 38.1972 0 35.4431 0 31.872H6.48738C6.48738 33.7499 7.12792 35.0887 8.40692 35.8887C9.71531 36.6589 11.2085 37.0429 12.8844 37.0429C14.5604 37.0429 15.8163 36.7204 16.7445 36.0733C17.6728 35.4261 18.139 34.5816 18.139 33.5356C18.139 32.551 17.6203 31.766 16.5849 31.1803C16.0977 30.8727 15.4886 30.5798 14.7578 30.304C14.3609 30.0897 13.9807 29.9348 13.6153 29.8414C13.5229 29.8117 13.0903 29.6505 12.3132 29.3577C11.5361 29.0649 10.9964 28.8569 10.6919 28.7339L9.36669 28.2267C6.99141 27.3037 5.07187 26.2874 3.61016 25.1798C1.75153 23.7348 0.82326 21.7021 0.82326 19.0859C0.82326 16.1323 1.88804 13.7707 4.02179 12.0011C6.15345 10.2315 9.03276 9.34668 12.6576 9.34668C16.2825 9.34668 19.3886 10.2548 21.5203 12.069C23.6519 13.8853 24.7188 16.6076 24.7188 20.2402H18.2314C18.2314 18.5788 17.7211 17.3481 16.7004 16.5482C15.6797 15.7482 14.302 15.3472 12.5652 15.3472C10.9502 15.3472 9.67961 15.6464 8.74924 16.2469C7.81887 16.8474 7.35474 17.6706 7.35474 18.7167C7.35474 19.7628 7.76637 20.5011 8.58753 21.0252C9.10417 21.3329 9.5767 21.579 10.003 21.7636C10.0954 21.7955 10.2004 21.8337 10.3223 21.8782C10.4441 21.9249 10.5428 21.9716 10.6184 22.0161C10.694 22.0628 10.7633 22.0862 10.8242 22.0862L12.7437 22.7779L14.0227 23.2404C14.846 23.5184 15.789 23.8706 16.8558 24.3013L19.3676 25.4089C20.3736 25.8715 21.1486 26.3319 21.6988 26.7945C24.0447 28.6108 25.1409 30.7496 24.9876 33.2109C24.9876 36.1963 23.8913 38.5813 21.6988 40.3657C19.5062 42.1502 16.4442 43.0435 12.5148 43.0435H12.519Z" fill="#082743"/>
<path d="M41.8498 42.3518H35.8181L29.377 12.209V10.0405H35.6816L40.1129 31.8742L44.9097 17.7958H48.9756L53.911 32.0121L58.2058 10.0405H64.3739V12.209L57.9327 42.3518H51.9011L46.8754 27.8575L41.8498 42.3518Z" fill="#082743"/>
<path d="M76.6178 42.3518H70.1304V10.0384H76.6178V42.3496V42.3518Z" fill="#082743"/>
<path d="M91.1467 42.3518H84.6593V10.0384H105.858V15.7631H91.1467V23.8409H103.666V29.2876H91.1467V42.3518Z" fill="#082743"/>
<path d="M123.905 42.3518H117.418V15.7631H108.416V10.0384H132.86V15.7631H123.905V42.3518Z" fill="#082743"/>
<path d="M135.834 33.8199C132.768 33.8199 131.234 32.4046 131.234 29.572V28.9842H133.9V29.572C133.9 30.7602 134.544 31.3543 135.834 31.3543C136.422 31.3543 136.888 31.1994 137.232 30.8896C137.577 30.5798 137.749 30.1088 137.749 29.4765V20.2592H140.414V29.5698C140.414 31.036 139.988 32.1118 139.137 32.7929C138.299 33.4761 137.197 33.8178 135.834 33.8178V33.8199Z" fill="#082743"/>
<path d="M150.793 29.2876V20.2614H153.477V29.1752C153.477 30.6414 153.019 31.7808 152.108 32.5892C151.194 33.4103 149.962 33.822 148.41 33.822C146.857 33.822 145.618 33.4103 144.692 32.5892C143.779 31.7808 143.323 30.6435 143.323 29.1752V20.2614H145.988V29.2876C145.988 29.8945 146.198 30.391 146.616 30.7772C147.036 31.1633 147.632 31.3564 148.41 31.3564C149.187 31.3564 149.762 31.1633 150.174 30.7772C150.587 30.391 150.793 29.8945 150.793 29.2876Z" fill="#082743"/>
<path d="M159.24 33.5355H156.575V20.2614H159.015L164.045 28.5301V20.2614H166.71V33.5355H164.27L159.24 25.2668V33.5355Z" fill="#082743"/>
<path d="M172.679 33.5355H170.014V20.2614H172.679V25.7229H174.067L177.238 20.2614H179.716V21.1525L176.394 26.7478L179.998 32.6465V33.5377H177.352L174.067 28.0761H172.679V33.5377V33.5355Z" fill="#082743"/>
<path d="M133.732 42.4557C133.022 42.4557 132.434 42.2669 131.969 41.8871C131.51 41.5073 131.281 40.9683 131.281 40.2702H132.551C132.551 40.6373 132.677 40.9004 132.927 41.0574C133.183 41.2081 133.475 41.2823 133.803 41.2823C134.131 41.2823 134.376 41.2187 134.559 41.0935C134.742 40.9683 134.832 40.8007 134.832 40.597C134.832 40.4039 134.731 40.2511 134.527 40.1366C134.433 40.0771 134.313 40.0199 134.17 39.9647C134.093 39.9223 134.019 39.8925 133.948 39.8735C133.931 39.8671 133.845 39.8353 133.694 39.778C133.543 39.7207 133.435 39.6804 133.377 39.6549L133.116 39.5552C132.652 39.3748 132.276 39.1754 131.988 38.9589C131.625 38.6767 131.442 38.2778 131.442 37.7665C131.442 37.1872 131.65 36.7268 132.068 36.3788C132.486 36.0329 133.049 35.8589 133.759 35.8589C134.469 35.8589 135.076 36.0372 135.494 36.3915C135.911 36.748 136.119 37.2806 136.119 37.9914H134.849C134.849 37.6667 134.748 37.4249 134.548 37.2678C134.349 37.1108 134.078 37.0323 133.74 37.0323C133.423 37.0323 133.175 37.0917 132.992 37.2084C132.81 37.3251 132.719 37.4864 132.719 37.6922C132.719 37.898 132.799 38.0423 132.961 38.1442C133.062 38.2036 133.154 38.2524 133.238 38.2884C133.257 38.2948 133.276 38.3012 133.301 38.3118C133.324 38.3203 133.345 38.3288 133.36 38.3394C133.374 38.3479 133.387 38.3521 133.4 38.3521L133.776 38.4879L134.026 38.5791C134.187 38.6343 134.372 38.7022 134.58 38.7871L135.071 39.0035C135.269 39.0947 135.42 39.1839 135.527 39.2751C135.987 39.6316 136.201 40.0496 136.172 40.5312C136.172 41.1147 135.958 41.5836 135.527 41.9316C135.099 42.2817 134.498 42.4557 133.729 42.4557H133.732Z" fill="#ED343F"/>
<path d="M137.3 40.1684V38.1442C137.3 37.427 137.522 36.8668 137.965 36.4637C138.409 36.0605 139.02 35.8589 139.795 35.8589C140.57 35.8589 141.179 36.0605 141.624 36.4637C142.067 36.8668 142.29 37.427 142.29 38.1442V40.1684C142.29 40.8856 142.067 41.4457 141.624 41.8489C141.179 42.252 140.57 42.4536 139.795 42.4536C139.02 42.4536 138.409 42.252 137.965 41.8489C137.52 41.4457 137.3 40.8856 137.3 40.1684ZM141.021 40.232V38.0805C141.021 37.7728 140.914 37.5225 140.7 37.3251C140.486 37.1299 140.183 37.0323 139.797 37.0323C139.41 37.0323 139.108 37.1299 138.894 37.3251C138.679 37.5203 138.572 37.7728 138.572 38.0805V40.232C138.572 40.5397 138.679 40.7901 138.894 40.9874C139.108 41.1826 139.41 41.2802 139.797 41.2802C140.183 41.2802 140.486 41.1826 140.7 40.9874C140.914 40.7922 141.021 40.5397 141.021 40.232Z" fill="#ED343F"/>
<path d="M147.819 42.3199H143.686V35.9948H144.957V41.1996H147.819V42.3199Z" fill="#ED343F"/>
<path d="M152.15 40.2957V35.9948H153.429V40.2427C153.429 40.9407 153.21 41.4839 152.776 41.8701C152.341 42.2626 151.753 42.4579 151.014 42.4579C150.274 42.4579 149.684 42.2626 149.243 41.8701C148.809 41.4839 148.59 40.9429 148.59 40.2427V35.9948H149.861V40.2957C149.861 40.5843 149.961 40.8219 150.161 41.0044C150.361 41.189 150.646 41.2802 151.016 41.2802C151.385 41.2802 151.661 41.189 151.856 41.0044C152.051 40.8198 152.152 40.5843 152.152 40.2957H152.15Z" fill="#ED343F"/>
<path d="M157.31 42.3199H156.039V37.1151H154.277V35.9948H159.064V37.1151H157.31V42.3199Z" fill="#ED343F"/>
<path d="M161.281 42.3199H160.011V35.9948H161.281V42.3199Z" fill="#ED343F"/>
<path d="M162.678 40.1684V38.1442C162.678 37.427 162.901 36.8668 163.344 36.4637C163.787 36.0605 164.398 35.8589 165.173 35.8589C165.948 35.8589 166.557 36.0605 167.002 36.4637C167.445 36.8668 167.668 37.427 167.668 38.1442V40.1684C167.668 40.8856 167.445 41.4457 167.002 41.8489C166.557 42.252 165.948 42.4536 165.173 42.4536C164.398 42.4536 163.787 42.252 163.344 41.8489C162.898 41.4457 162.678 40.8856 162.678 40.1684ZM166.399 40.232V38.0805C166.399 37.7728 166.292 37.5225 166.078 37.3251C165.864 37.1299 165.561 37.0323 165.175 37.0323C164.789 37.0323 164.486 37.1299 164.272 37.3251C164.058 37.5203 163.951 37.7728 163.951 38.0805V40.232C163.951 40.5397 164.058 40.7901 164.272 40.9874C164.486 41.1826 164.789 41.2802 165.175 41.2802C165.561 41.2802 165.864 41.1826 166.078 40.9874C166.292 40.7922 166.399 40.5397 166.399 40.232Z" fill="#ED343F"/>
<path d="M170.333 42.3199H169.062V35.9948H170.226L172.622 39.935V35.9948H173.893V42.3199H172.729L170.333 38.3797V42.3199Z" fill="#ED343F"/>
<path d="M177.516 42.4557C176.806 42.4557 176.218 42.2669 175.753 41.8871C175.294 41.5073 175.065 40.9683 175.065 40.2702H176.335C176.335 40.6373 176.461 40.9004 176.711 41.0574C176.967 41.2081 177.259 41.2823 177.587 41.2823C177.915 41.2823 178.16 41.2187 178.343 41.0935C178.526 40.9683 178.616 40.8007 178.616 40.597C178.616 40.4039 178.515 40.2511 178.311 40.1366C178.217 40.0771 178.097 40.0199 177.954 39.9647C177.877 39.9223 177.803 39.8925 177.732 39.8735C177.715 39.8671 177.629 39.8353 177.478 39.778C177.326 39.7207 177.219 39.6804 177.161 39.6549L176.9 39.5552C176.436 39.3748 176.06 39.1754 175.772 38.9589C175.409 38.6767 175.226 38.2778 175.226 37.7665C175.226 37.1872 175.434 36.7268 175.852 36.3788C176.27 36.0329 176.833 35.8589 177.543 35.8589C178.253 35.8589 178.86 36.0372 179.278 36.3915C179.695 36.748 179.903 37.2806 179.903 37.9914H178.633C178.633 37.6667 178.532 37.4249 178.332 37.2678C178.133 37.1108 177.862 37.0323 177.524 37.0323C177.207 37.0323 176.959 37.0917 176.776 37.2084C176.594 37.3251 176.503 37.4864 176.503 37.6922C176.503 37.898 176.583 38.0423 176.745 38.1442C176.846 38.2036 176.938 38.2524 177.022 38.2884C177.041 38.2948 177.06 38.3012 177.085 38.3118C177.108 38.3203 177.129 38.3288 177.144 38.3394C177.158 38.3479 177.171 38.3521 177.184 38.3521L177.56 38.4879L177.81 38.5791C177.971 38.6343 178.156 38.7022 178.364 38.7871L178.855 39.0035C179.053 39.0947 179.204 39.1839 179.311 39.2751C179.771 39.6316 179.985 40.0496 179.956 40.5312C179.956 41.1147 179.742 41.5836 179.311 41.9316C178.883 42.2817 178.282 42.4557 177.513 42.4557H177.516Z" fill="#ED343F"/>
</g>
<defs>
<clipPath id="clip0_17_48">
<rect width="180" height="43.0435" fill="white"/>
</clipPath>
</defs>
</svg>
