<svg width="43" height="35" viewBox="0 0 43 35" fill="none" xmlns="http://www.w3.org/2000/svg">
<path d="M42.4876 3.99512C42.3034 3.73944 42.0019 3.59899 41.6387 3.59899C41.5485 3.59899 41.454 3.60803 41.3581 3.62565C41.2133 3.65231 41.0784 3.70087 40.9479 3.74801C40.8662 3.77753 40.7888 3.80562 40.7114 3.82752C40.6288 3.85085 40.5533 3.88466 40.4807 3.91751C40.4716 3.92132 40.4631 3.9256 40.4546 3.92941C40.4669 3.91275 40.4788 3.89656 40.4911 3.8799C41.0884 3.07145 41.5656 2.18301 41.9084 1.23934C41.9952 0.99985 42.1272 0.637524 41.7778 0.31281C41.558 0.108079 41.3163 0 41.0789 0C40.9621 0 40.8463 0.0257104 40.7352 0.0766552C40.503 0.18283 40.2604 0.253295 40.0035 0.32757C39.7315 0.406606 39.4499 0.488022 39.1812 0.616574C38.0868 1.13888 36.9383 1.55881 35.86 1.93447C35.7675 1.96685 35.6901 1.98161 35.6165 1.98161C35.521 1.98161 35.4251 1.95495 35.3145 1.89686C33.9409 1.17935 32.7554 0.63181 31.4336 0.291385C30.7675 0.119506 30.0776 0.0328522 29.3825 0.0328522C28.516 0.0328522 27.6344 0.161881 26.6876 0.427555C25.3483 0.803213 24.119 1.55929 23.0341 2.67436C21.1445 4.61693 20.1512 7.00324 20.0824 9.76759C20.0819 9.79234 20.08 9.85567 20.0743 9.89566C20.0582 9.89471 20.0344 9.89138 20.0002 9.88376C17.7683 9.37669 15.4608 8.85248 13.2925 7.96881C11.0581 7.05799 9.0151 5.85341 7.22088 4.38839C6.58086 3.86609 5.99925 3.25856 5.4371 2.67103C5.04255 2.25871 4.63424 1.83258 4.20693 1.43598L4.18082 1.41169C3.90164 1.15268 3.76158 1.0227 3.58876 1.0227C3.35991 1.0227 3.25641 1.22791 3.06886 1.60071L3.05082 1.63642C2.30398 3.11763 1.92225 4.31459 1.8121 5.51727C1.60557 7.77074 2.18339 9.94708 3.52893 11.9853C3.8893 12.5315 4.30474 13.0366 4.71922 13.5237C3.87363 13.3361 3.09973 12.9604 2.36238 12.3805C2.1435 12.2086 1.91703 12.1215 1.68866 12.1215C1.48877 12.1215 1.29221 12.1887 1.10372 12.3205C0.718668 12.591 0.602345 13.0004 0.75855 13.5385C0.872974 13.9312 1.01399 14.3202 1.17779 14.694C2.22564 17.0817 3.91731 19.1243 6.34964 20.9383C6.37576 20.9578 6.40282 20.9759 6.42941 20.9921C5.55295 20.9711 4.7743 20.764 4.05357 20.3608C3.68656 20.1556 3.41356 20.0641 3.1681 20.0641C2.92263 20.0641 2.71087 20.1556 2.50387 20.3431C2.00012 20.8002 2.20855 21.3082 2.37615 21.7163L2.39989 21.7739C2.97201 23.1799 3.73452 24.344 4.66652 25.2343C5.6593 26.1832 6.87856 26.855 8.29057 27.2321C8.68227 27.3369 9.07017 27.4154 9.48039 27.4983C9.53167 27.5087 9.58389 27.5192 9.63612 27.5297C7.77401 28.5452 5.71818 29.1785 3.51944 29.4118C3.01854 29.4651 2.50482 29.4961 2.00771 29.5261C1.71952 29.5437 1.42135 29.5613 1.12841 29.5837C0.626084 29.6218 0.263347 29.886 0.0800792 30.3478C-0.0438402 30.6597 -0.0851467 31.1315 0.420976 31.6072C0.612316 31.7867 0.835466 31.9352 1.0477 32.0723C2.77402 33.185 4.68884 33.7126 6.5011 34.1173C8.40547 34.5424 10.4414 34.8015 12.7256 34.9091C13.7426 34.9571 14.7372 35 15.7181 35C17.1905 35 18.4078 34.9038 19.5497 34.6977C23.4562 33.9916 26.9763 32.3304 30.013 29.7603C33.8683 26.4975 36.566 22.369 38.0317 17.4893C38.545 15.781 38.8669 14.216 39.0169 12.7052C39.0919 11.9473 39.099 11.174 39.1057 10.4265C39.1081 10.158 39.1104 9.87995 39.1161 9.60809C39.1199 9.42716 39.147 9.37288 39.2685 9.3048C40.8572 8.40922 41.9449 7.01276 42.5949 5.03544C42.725 4.63978 42.688 4.27127 42.4904 3.99797L42.4876 3.99512ZM37.4045 8.61633C37.4245 9.61999 37.3794 10.6984 37.2621 12.0101C37.0807 14.0455 36.6472 16.0585 35.9749 17.9925C34.3678 22.6138 31.5794 26.4141 27.688 29.2875C25.0719 31.2191 22.1639 32.447 19.045 32.9379C18.038 33.0965 16.9697 33.1703 15.6835 33.1703C14.9025 33.1703 14.1309 33.1441 13.2122 33.105C11.9839 33.0527 10.6807 32.9365 9.2278 32.7499C7.12592 32.4799 5.14274 31.9714 3.32477 31.2368C7.3486 30.923 11.0064 29.2847 14.4894 26.2389L14.8716 25.9052H14.365C14.0645 25.9052 13.7625 25.9076 13.471 25.9099C13.1856 25.9123 12.8908 25.9147 12.6026 25.9147C12.1943 25.9147 11.8576 25.9099 11.5429 25.8999C9.82461 25.8452 8.47004 25.5595 7.2788 25.0005C6.25089 24.5178 5.43995 23.7269 4.67839 22.4557C4.714 22.4657 4.75056 22.4776 4.78759 22.49C4.83175 22.5047 4.87733 22.52 4.92433 22.5323C5.6104 22.709 6.34632 22.7914 7.24082 22.7914C7.73507 22.7914 8.2298 22.7661 8.64856 22.7409C9.04311 22.7176 9.45143 22.6933 9.85547 22.6933H9.88159C10.2101 22.6933 10.3806 22.5323 10.4024 22.2005C10.4095 22.0953 10.4385 21.9705 10.467 21.8501C10.5292 21.5849 10.5933 21.3106 10.467 21.0954C10.3355 20.8716 10.052 20.7921 9.77808 20.715C9.66366 20.6826 9.55541 20.6521 9.46425 20.6136C8.06932 20.0222 6.93078 19.2876 5.98311 18.3677C4.73917 17.1603 3.86936 16.0462 3.24976 14.8654C4.1623 15.183 5.10048 15.382 6.1037 15.4715C6.6217 15.5177 7.13257 15.5239 7.51952 15.5239C7.74504 15.5239 7.96724 15.5215 8.20274 15.5191C8.43681 15.5167 8.67895 15.5143 8.92299 15.5143C9.1205 15.5143 9.29855 15.5158 9.46757 15.5191L10.0658 15.5305L9.16276 14.8644C8.88406 14.6588 8.63337 14.474 8.38268 14.2888C8.27301 14.2079 8.16191 14.1279 8.05128 14.0484C7.80819 13.8736 7.5575 13.6932 7.32581 13.5013C5.49977 11.9892 4.34937 10.2823 3.80811 8.284C3.42685 6.87707 3.50804 5.4349 4.05547 3.87799C4.05975 3.88228 4.06449 3.88704 4.06924 3.89132C4.27767 4.08796 4.48658 4.29269 4.68884 4.49028C5.04161 4.83594 5.40672 5.19351 5.78655 5.52489C7.73887 7.22844 10.0269 8.61062 12.5874 9.63284C15.589 10.8312 18.7174 11.4916 21.3819 11.9796C21.4317 11.9887 21.4759 11.993 21.5172 11.993C21.6283 11.993 21.7171 11.9592 21.7807 11.8925C21.8828 11.7854 21.8761 11.644 21.8704 11.5302C21.8695 11.5126 21.8685 11.4949 21.8685 11.4773C21.8453 10.4751 21.8481 9.40335 22.0219 8.35589C22.3239 6.53759 23.2383 4.86642 24.5967 3.65041C25.9754 2.41583 27.7274 1.73545 29.5297 1.73545C29.6973 1.73545 29.8673 1.74117 30.0354 1.75259C30.7328 1.80021 31.4056 2.06017 31.9141 2.28109L32.18 2.39631C32.9482 2.72912 33.742 3.07287 34.4746 3.49757C34.8212 3.69849 35.1654 3.7961 35.5272 3.7961C35.805 3.7961 36.0841 3.73849 36.3814 3.62041C36.7132 3.48805 37.056 3.36283 37.3874 3.2419C38.0013 3.01764 38.6361 2.7853 39.2415 2.49582C39.2557 2.48915 39.2704 2.48249 39.2861 2.4763C38.6864 3.38283 38.1262 4.13557 37.3846 4.72929C37.2255 4.85642 37.0883 5.0002 36.9744 5.124C36.642 5.48632 36.5998 5.91959 36.8561 6.34334C37.0204 6.6152 37.2645 6.75899 37.5612 6.75899C37.6804 6.75899 37.8105 6.73566 37.9482 6.68948C38.4923 6.50712 39.0435 6.31763 39.5767 6.13432C39.7913 6.06052 40.0064 5.98672 40.221 5.9134C39.9565 6.37762 39.6261 6.74661 39.3004 7.07846C38.8018 7.58696 38.3361 7.88644 37.8347 8.01975C37.4496 8.12212 37.4012 8.36637 37.4059 8.6149L37.4045 8.61633Z" fill="white"/>
</svg>
