<svg width="36" height="35" viewBox="0 0 36 35" fill="none" xmlns="http://www.w3.org/2000/svg">
<path d="M35.6672 17.5582C35.6254 16.1759 35.4972 15.0391 35.2626 13.9817C35.0361 12.9603 34.7493 11.9983 34.3861 11.041C33.9426 9.87335 33.302 8.69575 32.4273 7.44075C31.4705 6.06798 30.3186 4.84479 29.0023 3.80489C27.924 2.95256 26.724 2.21655 25.4353 1.61683C24.0801 0.985768 22.6195 0.537519 20.9699 0.245492C20.4262 0.1491 19.8279 0.0807228 19.0867 0.0303898C18.7932 0.0104465 18.4912 0 18.1888 0C17.1228 0 16.0145 0.119185 14.702 0.374649C13.8848 0.53372 13.1004 0.779688 12.3672 1.01758C11.7889 1.20562 11.201 1.44636 10.6203 1.73317C9.39806 2.33716 8.32872 3.00621 7.3515 3.77878C6.83772 4.18477 6.34673 4.6183 5.84958 5.10311C5.30636 5.6335 4.84719 6.19951 4.34576 6.83105C3.73701 7.59792 3.20804 8.40372 2.77309 9.22615C2.25314 10.2091 1.86187 11.1094 1.57696 11.9793C1.21513 13.0828 0.953497 14.2082 0.799174 15.3236C0.660046 16.3231 0.660046 17.3321 0.680939 18.2738C0.698508 19.0705 0.822916 19.8497 0.942576 20.5069C1.08835 21.3085 1.30393 22.1394 1.60118 23.0478C1.98675 24.2245 2.50195 25.3517 3.13301 26.3973C3.24175 26.5778 3.27879 26.6946 3.21041 26.9092C2.98866 27.6058 2.79445 28.3209 2.60642 29.0123C2.46112 29.5465 2.31107 30.0992 2.15009 30.6372C1.95778 31.2792 1.78969 31.9373 1.62682 32.5736C1.54182 32.9064 1.45398 33.2502 1.36376 33.5869C1.32055 33.7488 1.32957 33.8837 1.3932 34.0233C1.52473 34.311 1.73556 34.641 2.20755 34.641C2.34146 34.641 2.49435 34.614 2.67479 34.5584C3.16815 34.4064 3.66721 34.2464 4.14965 34.0916C4.63731 33.9349 5.14159 33.773 5.63827 33.6206C6.00437 33.5081 6.38045 33.4003 6.74417 33.2958C7.41607 33.103 8.11077 32.9041 8.78219 32.6643C8.90185 32.6215 9.01249 32.6006 9.1198 32.6006C9.34487 32.6006 9.55143 32.6951 9.79265 32.8366C10.6255 33.3257 11.5799 33.736 12.796 34.1277C13.5809 34.3803 14.3677 34.5518 15.0339 34.6857C15.9442 34.8685 16.9409 34.9706 18.0805 34.9972C18.157 34.9991 18.2334 35 18.3099 35C19.3426 35 20.355 34.8419 21.3037 34.6795C22.2738 34.5138 23.2249 34.2621 24.13 33.9316C25.5227 33.4235 26.8722 32.7198 28.141 31.8399C28.9563 31.2744 29.5451 30.8034 30.0498 30.3124C31.4107 28.9876 32.3969 27.7606 33.1529 26.4515L33.2588 26.2686C33.6334 25.6224 34.0204 24.9538 34.2968 24.2373C34.737 23.0948 35.0556 22.0388 35.2697 21.0088C35.492 19.9414 35.6216 18.8174 35.6662 17.5734V17.5658V17.5577L35.6672 17.5582ZM4.05136 30.5189C4.16722 30.0873 4.28735 29.6414 4.41556 29.2069C4.5034 28.9083 4.58603 28.6034 4.66627 28.309C4.78118 27.8859 4.8999 27.4486 5.03475 27.027C5.21994 26.4472 4.97777 25.998 4.73607 25.6224C4.34196 25.0098 3.98393 24.3094 3.64204 23.4809C3.24318 22.515 2.97299 21.6503 2.81582 20.8384C2.68477 20.1608 2.5898 19.4822 2.53424 18.8212C2.48106 18.1883 2.46681 17.5453 2.49198 16.8559C2.54849 15.2965 2.82817 13.7932 3.3239 12.3876C3.78212 11.088 4.42221 9.82444 5.28072 8.52481C5.89469 7.59554 6.65965 6.82393 7.52339 5.98251C8.48921 5.04185 9.65827 4.23083 11.097 3.50337C12.1583 2.9668 13.2751 2.55274 14.5111 2.23792C15.8478 1.89746 17.0762 1.84665 17.6897 1.84665C17.731 1.84665 17.7714 1.84665 17.8151 1.84713H17.9984C18.1608 1.8457 18.3165 1.84523 18.467 1.84523C19.3289 1.84523 19.9443 1.8666 20.5383 1.97676C21.6053 2.17382 23.0018 2.47677 24.3441 3.07459C25.516 3.59597 26.5089 4.15818 27.3803 4.79256C28.404 5.53854 29.3746 6.45165 30.2644 7.50627C30.9976 8.37523 31.6268 9.32966 32.1334 10.3434C32.5836 11.2433 32.8946 11.9959 33.113 12.711C33.311 13.3606 33.5304 14.1303 33.6529 14.9171C33.8652 16.2818 33.9164 17.504 33.8086 18.6541C33.7436 19.3502 33.6515 20.1703 33.4611 20.9732C33.2887 21.7011 33.0707 22.4243 32.8134 23.1238C32.5123 23.941 32.1249 24.7482 31.6605 25.5241C30.9458 26.7193 30.066 27.8214 29.0465 28.8005C27.961 29.8423 26.8285 30.6671 25.5844 31.3214C24.2392 32.0289 22.998 32.5004 21.789 32.763C20.62 33.0171 19.6598 33.1419 18.7681 33.1576C18.5022 33.1619 18.2809 33.1643 18.072 33.1643C17.3398 33.1643 16.7443 33.1367 16.1987 33.0769C15.6413 33.0161 15.0449 32.9064 14.3753 32.7407C13.363 32.4909 12.3259 32.1082 11.2048 31.5707C10.9826 31.4639 10.7613 31.3385 10.5476 31.2174C10.2722 31.0612 9.98781 30.8998 9.68534 30.7687C9.56045 30.7146 9.43984 30.688 9.31781 30.688C9.22284 30.688 9.12597 30.7036 9.02198 30.7364C8.36718 30.9411 7.69908 31.1438 7.0533 31.3395C6.63734 31.4658 6.22138 31.5921 5.80589 31.7193C5.31206 31.8708 4.8111 32.028 4.32629 32.1795C4.05183 32.2654 3.77785 32.3509 3.50339 32.4363C3.70852 31.8001 3.88374 31.149 4.05325 30.518L4.05136 30.5189Z" fill="white"/>
<path d="M7.70788 16.6451C8.21738 17.78 8.8456 18.8218 9.33563 19.6019C9.68322 20.1556 10.0788 20.6808 10.4615 21.1893L10.4734 21.205C11.1519 22.1062 11.8314 22.8774 12.5503 23.5616C13.1149 24.0987 13.7488 24.6257 14.4891 25.1718C15.4473 25.8788 16.3894 26.4387 17.3695 26.8826C18.3737 27.3375 19.3258 27.6528 20.2812 27.8461C21.18 28.028 22.097 28.1362 23.0842 28.1775H23.0899C23.1164 28.178 23.1435 28.1785 23.1701 28.1785C23.5329 28.1785 23.89 28.1348 24.2347 28.0921C24.3045 28.0835 24.3738 28.075 24.4441 28.0669C25.4403 27.9496 26.3553 27.6324 27.164 27.1243C27.985 26.6082 28.6365 25.8831 29.1555 24.9068C29.5382 24.1874 29.7319 23.4101 29.92 22.6585L29.9584 22.5046C30.0819 22.0117 29.9314 21.6371 29.4969 21.3603C29.041 21.0696 28.5719 20.7862 28.1179 20.5122L27.9532 20.4125C27.6132 20.2073 27.2741 19.9842 26.9456 19.7681C26.3914 19.4039 25.8188 19.0269 25.2133 18.7154C24.8496 18.5283 24.5253 18.4371 24.2219 18.4371C23.8282 18.4371 23.475 18.5943 23.1706 18.9039C22.9374 19.1413 22.7446 19.4125 22.5585 19.6746C22.4697 19.7995 22.3776 19.9286 22.2845 20.0502C21.8135 20.6613 21.4122 21.0977 20.9835 21.4647C20.9099 21.5279 20.8439 21.5583 20.7812 21.5583C20.7351 21.5583 20.6843 21.5426 20.6254 21.5108C19.4193 20.8555 18.4953 20.2619 17.7166 19.6428C16.6648 18.8061 15.8006 18.0967 15.0494 17.2192C14.6263 16.7253 14.151 16.1413 13.8609 15.4627C13.7483 15.1992 13.7968 15.081 13.9112 14.9751C14.4145 14.5102 14.8167 13.9884 15.1064 13.4242C15.273 13.0995 15.482 12.6042 15.3723 12.0553C15.2137 11.2594 14.8576 10.5443 14.5128 9.8525C14.434 9.69438 14.3523 9.53056 14.2749 9.36911C14.0484 8.89759 13.7782 8.44697 13.5166 8.01154C13.376 7.77744 13.2312 7.53575 13.0959 7.29548C12.8148 6.79642 12.3879 6.54333 11.8262 6.54333H11.6823C11.2858 6.54476 10.8755 6.54618 10.4643 6.59557C10.1481 6.63355 9.744 6.7214 9.42823 7.06851C9.13003 7.39567 8.87361 7.74943 8.6153 8.11316C8.15518 8.76131 7.77531 9.4598 7.48708 10.1896C7.31614 10.6227 7.20123 11.0724 7.09011 11.5078C7.07207 11.5781 7.05403 11.6483 7.03598 11.7186C6.8337 12.5021 6.81376 13.3331 6.9733 14.334C7.08726 15.0487 7.32041 15.7828 7.70741 16.6451H7.70788ZM10.1272 9.04717C10.2008 8.9446 10.2768 8.83871 10.3409 8.71953C10.547 8.33681 10.858 8.31259 11.3485 8.30499C11.4444 8.30357 11.5432 8.30214 11.6419 8.29597C11.6453 8.30167 11.6486 8.30689 11.6519 8.31259C12.0864 9.01061 12.4971 9.77035 12.9449 10.7029C12.9919 10.8008 13.037 10.8995 13.0826 10.9978C13.1928 11.2376 13.3067 11.4855 13.444 11.721C13.7018 12.164 13.6434 12.5643 13.2488 13.0591C12.9264 13.4627 12.6173 13.8188 12.3039 14.1479C11.9924 14.4746 11.8931 14.8559 12.0009 15.3146C12.2018 16.1698 12.6097 16.9746 13.2844 17.8479C13.8856 18.6256 14.5655 19.2975 15.151 19.8522C15.8875 20.5492 16.7631 21.2263 17.907 21.9818C18.519 22.3859 19.2047 22.7691 20.0043 23.1528C20.2641 23.2772 20.5276 23.3403 20.7874 23.3403C21.2707 23.3403 21.7366 23.1347 22.2541 22.6936C23.012 22.0473 23.6787 21.2724 24.2926 20.3241C24.313 20.2928 24.3278 20.2767 24.3358 20.2691C24.3496 20.2724 24.3786 20.2819 24.4356 20.3094C24.7822 20.4785 25.0956 20.6945 25.4275 20.9239C25.559 21.0146 25.6948 21.1086 25.8321 21.1983C26.4645 21.6124 27.1697 22.0478 28.051 22.5682C28.0918 22.5925 28.1089 22.6081 28.1151 22.6148C28.1151 22.6205 28.1137 22.6309 28.1099 22.6475C27.8188 23.8769 27.3748 24.6979 26.6706 25.31C26.2689 25.659 25.7827 25.9211 25.1839 26.111C24.5462 26.3133 23.8862 26.3522 23.248 26.3898L23.1155 26.3978C21.6468 26.3366 20.5547 26.1685 19.5751 25.8527C18.3092 25.4448 17.1292 24.8688 16.0684 24.1409C14.8761 23.3232 13.7692 22.3199 12.5854 20.9832C11.7549 20.0459 10.9867 18.9751 10.3019 17.8013C9.64855 16.6812 9.19935 15.7206 8.88833 14.778C8.68795 14.1707 8.62955 13.4746 8.71027 12.6512C8.75348 12.2077 8.81663 11.7357 8.9833 11.2856C9.31759 10.3829 9.67324 9.6825 10.1034 9.08136L10.1272 9.04812V9.04717Z" fill="white"/>
</svg>
