<svg width="42" height="56" viewBox="0 0 42 56" fill="none" xmlns="http://www.w3.org/2000/svg">
<path d="M16.2355 0C16.8024 0 17.3672 0.113931 17.8782 0.360436C19.369 1.07786 20.0263 2.60522 20.2749 4.35562C20.732 7.57607 20.7106 10.9346 20.8521 14.1813C20.9882 17.3037 21.3389 20.549 21.0441 23.67C20.9633 24.5242 20.8439 26.4603 19.7377 26.6495C18.704 26.827 17.2077 24.9675 16.587 24.3937C12.1671 20.3094 8.5034 15.0617 5.98104 9.5923C3.28053 3.74039 10.2441 1.7718 14.5231 0.287244C15.0713 0.0966687 15.6472 0 16.2279 0H16.2355Z" fill="white"/>
<path d="M0 33.8118C0.0780255 30.6044 0.569655 23.6029 5.33473 24.2133C7.4939 24.4895 9.88438 26.1528 11.7204 27.2583C13.6531 28.4218 16.2583 29.9678 17.4846 31.9233C18.9747 34.2999 16.627 35.2003 14.7289 35.9896C12.2051 37.0391 9.62682 38.0983 7.00296 38.8689C5.42311 39.3329 3.05887 40.2451 1.53151 39.152C-0.040739 38.0272 0.146384 35.4959 0 33.8118Z" fill="white"/>
<path d="M26.4865 30.9543C19.4484 30.9543 27.0603 22.6346 28.7907 20.7157C30.0177 19.3548 32.6499 15.6503 34.7441 16.1661C36.6968 16.6474 39.2164 19.8878 40.3516 21.4456C41.5358 23.0717 42.7932 25.3966 40.9413 26.9916C39.8986 27.8899 38.22 28.2794 36.944 28.6861C33.6842 29.7259 29.9466 30.9536 26.4872 30.9536L26.4865 30.9543Z" fill="white"/>
<path d="M21.7657 45.327C21.7657 45.5258 21.7594 45.724 21.7525 45.9222C21.6379 49.1136 22.5936 55.3867 18.1848 55.1043C15.7128 54.9462 6.97948 53.3733 8.17887 49.3608C8.75336 47.4392 11.3123 45.2282 12.5628 43.6636C13.9389 41.9408 15.2557 39.9335 17.1518 38.7466C21.8326 35.8161 21.776 42.0706 21.7663 45.3277L21.7657 45.327Z" fill="white"/>
<path d="M27.2979 35.2065C27.9304 35.0816 28.5849 35.1244 29.2036 35.308C31.1384 35.8825 33.0717 36.4591 35.001 37.0515C36.8674 37.6246 39.6749 38.1908 40.9143 39.877C43.0735 42.8137 38.8035 47.1859 36.4434 48.562C34.8056 49.517 32.9771 50.331 31.5416 48.8092C30.0039 47.1789 28.7486 45.1109 27.6776 43.1527C26.2863 40.6082 23.6659 35.9246 27.2986 35.2065H27.2979Z" fill="white"/>
</svg>
